<?xml version="1.0" encoding="utf-8"?>
<!-- Generator: Adobe Illustrator 27.0.1, SVG Export Plug-In . SVG Version: 6.00 Build 0)  -->
<svg version="1.1" id="Layer_1" xmlns="http://www.w3.org/2000/svg" xmlns:xlink="http://www.w3.org/1999/xlink" x="0px" y="0px"
	 viewBox="0 0 1284 244" style="enable-background:new 0 0 1284 244;" xml:space="preserve">
<style type="text/css">
	.st0{fill:#F1C40F;}
</style>
<g transform="translate(0.000000,640.000000) scale(0.100000,-0.100000)">
	<path class="st0" d="M1205.83,6334.11c-69-34-115-122-211-398c-34-99-75-209-92-243c-45-96-43-95-393-93c-303,2-370-5-431-45
		c-55-36-68-103-33-169c32-60,90-116,244-233c299-226,319-248,306-332c-4-25-45-155-91-289c-60-178-84-263-88-311
		c-8-122,30-180,119-180c71,0,145,32,266,115c279,192,348,236,385,247s45,10,92-15c48-25,85-52,331-239c203-154,333-180,386-76
		c38,74,23,176-70,471c-50,161-75,271-67,301c9,38,79,97,265,226c206,143,274,199,307,255c53,91,16,179-89,210c-64,19-256,34-443,35
		c-78,0-166,4-195,10c-76,14-99,44-148,199c-22,69-61,192-86,272c-55,176-97,248-158,278
		C1259.83,6355.11,1249.83,6355.11,1205.83,6334.11z"/>
	<path class="st0" d="M3763.83,6304.11c-55-50-95-134-175-364c-36-107-79-220-95-251c-48-96-35-93-399-93c-348,0-378-4-436-58
		c-67-62-53-140,44-240c26-27,126-108,222-181c96-74,197-157,224-185c47-51,48-53,41-99c-7-49-43-162-113-362c-94-264-94-376-2-423
		c76-39,180,6,445,192c88,62,188,126,222,143c63,31,63,31,106,14c24-9,137-87,252-174c212-159,265-192,349-213c39-10,50-9,83,7
		c86,43,95,160,28,384c-21,69-53,177-72,240s-35,139-36,169c-2,52-1,54,49,100c28,25,129,100,225,166c266,182,350,279,318,364
		c-34,88-137,121-380,121c-187,1-382,16-416,32c-42,20-75,92-138,302c-111,373-154,446-264,446
		C3812.83,6341.11,3796.83,6334.11,3763.83,6304.11z M3902.83,6173.11c17-32,49-120,72-197c121-409,152-466,271-495
		c24-6,163-15,309-20c333-10,410-26,381-77c-21-39-103-107-271-222c-212-147-277-202-301-255c-35-76-23-153,70-453
		c75-242,88-343,42-343c-39,0-144,66-311,195c-96,75-207,152-247,172c-126,62-176,46-457-152c-247-173-344-218-347-162
		c-4,60,9,111,88,347c98,290,110,358,75,426c-28,55-111,131-297,271c-169,127-259,212-253,241c7,35,67,42,396,45c350,3,363,5,416,68
		c42,49,68,108,141,319c95,275,142,368,179,354C3866.83,6232.11,3886.83,6204.11,3902.83,6173.11z"/>
	<path class="st0" d="M6354.83,6304.11c-53-47-101-148-180-378c-74-214-105-282-143-310c-27-19-42-20-350-20c-283-1-327-3-367-18
		c-58-23-88-52-102-98c-10-34-8-44,16-93c33-68,96-126,302-281c178-134,240-191,250-230c9-36-12-117-94-350c-38-110-75-231-82-268
		c-21-116,5-194,75-217c77-26,169,17,428,196c221,154,273,180,321,164c37-12,139-82,324-224c194-148,293-192,365-162
		c55,22,77,66,77,151c0,84-12,136-85,370c-36,114-58,207-62,253l-6,73l49,47c28,26,127,100,222,165c94,65,198,142,231,173
		c105,97,125,179,58,241c-58,54-146,73-346,73c-188,1-384,15-418,32c-41,19-81,111-148,338c-96,328-146,410-252,410
		C6402.83,6341.11,6387.83,6334.11,6354.83,6304.11z M6477.83,6204.11c34-55,59-124,122-336c62-208,85-266,121-315
		c54-71,152-92,422-92c251,0,377-19,390-58c8-25-120-134-293-253c-205-140-256-185-286-245c-36-75-23-147,84-494
		c61-196,72-291,34-298c-34-7-122,47-320,196c-108,82-222,161-251,175c-118,58-174,36-506-198c-132-92-229-145-269-145
		c-23,0-24,2-19,68s25,131,124,412c53,151,68,264,42,313c-26,51-113,130-289,263c-179,135-272,224-267,253c7,35,72,42,369,41
		c176,0,306,4,338,11c105,22,146,85,250,386c38,109,79,219,90,245c23,50,67,108,82,108
		C6450.83,6241.11,6464.83,6224.11,6477.83,6204.11z"/>
	<path class="st0" d="M8947.83,6306.11c-53-45-96-135-173-360c-73-212-115-302-153-330c-27-19-43-20-350-20c-248-1-330-4-357-14
		c-126-49-148-135-65-244c38-50,108-109,322-271c79-59,157-124,174-144c28-34,30-42,25-90c-2-29-32-132-67-230
		c-120-345-135-418-101-494c14-32,29-49,57-62c70-33,155-3,330,116c61,41,157,107,214,146c57,40,124,79,148,88c43,17,44,17,101-13
		c31-16,142-93,246-172c259-197,359-239,433-185c87,64,77,170-53,584c-20,63-39,146-41,183l-6,68l46,43c24,24,123,97,218,162
		c267,184,351,273,335,359c-18,95-132,135-387,135c-187,1-382,16-415,32c-43,20-66,72-144,328c-103,339-153,420-256,420
		C8996.83,6341.11,8979.83,6334.11,8947.83,6306.11z M9074.83,6195.11c27-43,41-82,140-404c23-74,55-160,71-191
		c58-117,96-128,459-139c299-9,380-22,380-60c0-30-88-109-237-210c-357-245-385-281-349-456c9-44,40-158,70-255
		c61-199,79-278,74-329c-3-32-5-35-35-34c-42,2-126,54-286,178c-231,179-295,216-371,216c-61,0-157-51-346-183
		c-183-129-284-187-325-187h-28l5,64c4,45,32,143,92,319c71,209,87,265,88,318c2,112-32,152-294,350c-90,68-182,141-206,163
		c-46,43-77,90-67,106c15,25,100,32,370,31c322-2,369,4,424,55c49,44,85,120,166,354c37,107,79,218,92,245c26,52,60,95,75,95
		C9041.83,6241.11,9058.83,6220.11,9074.83,6195.11z"/>
	<path class="st0" d="M11543.83,6311.11c-52-42-106-155-184-380c-76-221-114-301-153-321c-21-11-96-14-337-14c-345,0-383-5-441-60
		c-28-27-34-39-34-75c0-94,59-160,322-358c97-73,192-150,212-172c53-59,50-84-48-371c-119-349-128-425-56-494c26-25,39-29,83-29
		c72,0,166,48,352,179c179,126,254,173,297,186c56,16,100-10,397-239c214-165,329-196,399-108c50,64,40,151-54,462
		c-36,121-68,247-71,281l-6,61l46,44c25,25,88,73,139,108c278,190,369,265,401,333c49,103-17,181-175,207c-34,5-124,10-198,10
		c-201,1-382,15-417,34c-42,21-71,88-143,332c-70,236-106,320-161,375c-34,34-45,39-87,39
		C11588.83,6341.11,11571.83,6335.11,11543.83,6311.11z M11661.83,6202.11c30-44,55-113,120-331c30-102,70-217,89-257
		c63-132,92-142,464-153c373-12,414-24,360-101c-23-32-147-126-325-247c-66-45-141-102-167-127c-113-108-111-158,13-555
		c40-131,51-181,53-240c1-64-1-75-17-78c-33-7-112,42-312,193c-110,83-225,163-254,178c-113,56-181,32-452-158
		c-176-124-288-188-321-183c-21,3-23,8-22,63c1,60,16,111,118,400c25,72,51,163,57,202c12,68,12,72-15,126c-30,63-85,115-256,242
		c-58,43-138,105-178,138c-75,61-129,128-118,146c16,26,98,33,371,32c322-2,369,4,424,55c53,47,81,104,157,324
		c77,225,105,291,140,338C11620.83,6247.11,11631.83,6246.11,11661.83,6202.11z"/>
</g>
</svg>
