<?xml version="1.0" encoding="utf-8"?>
<!-- Generator: Adobe Illustrator 27.0.1, SVG Export Plug-In . SVG Version: 6.00 Build 0)  -->
<svg version="1.1" id="Layer_1" xmlns="http://www.w3.org/2000/svg" xmlns:xlink="http://www.w3.org/1999/xlink" x="0px" y="0px"
	 viewBox="0 0 1284 244" style="enable-background:new 0 0 1284 244;" xml:space="preserve">
<style type="text/css">
	.st0{fill:#F1C40F;}
	.st1{fill:#F39C12;}
</style>
<g transform="translate(0.000000,640.000000) scale(0.100000,-0.100000)">
	<path class="st0" d="M1205.8,6334.1c-69-34-115-122-211-398c-34-99-75-209-92-243c-45-96-43-95-393-93c-303,2-370-5-431-45
		c-55-36-68-103-33-169c32-60,90-116,244-233c299-226,319-248,306-332c-4-25-45-155-91-289c-60-178-84-263-88-311
		c-8-122,30-180,119-180c71,0,145,32,266,115c279,192,348,236,385,247s45,10,92-15c48-25,85-52,331-239c203-154,333-180,386-76
		c38,74,23,176-70,471c-50,161-75,271-67,301c9,38,79,97,265,226c206,143,274,199,307,255c53,91,16,179-89,210c-64,19-256,34-443,35
		c-78,0-166,4-195,10c-76,14-99,44-148,199c-22,69-61,192-86,272c-55,176-97,248-158,278C1259.8,6355.1,1249.8,6355.1,1205.8,6334.1
		z"/>
	<path class="st0" d="M3795.8,6334.1c-69-34-115-122-211-398c-34-99-75-209-92-243c-45-96-43-95-393-93c-303,2-370-5-431-45
		c-55-36-68-103-33-169c32-60,90-116,244-233c299-226,319-248,306-332c-4-25-45-155-91-289c-60-178-84-263-88-311
		c-8-122,30-180,119-180c71,0,145,32,266,115c279,192,348,236,385,247s45,10,92-15c48-25,85-52,331-239c203-154,333-180,386-76
		c38,74,23,176-70,471c-50,161-75,271-67,301c9,38,79,97,265,226c206,143,274,199,307,255c53,91,16,179-89,210c-64,19-256,34-443,35
		c-78,0-166,4-195,10c-76,14-99,44-148,199c-22,69-61,192-86,272c-55,176-97,248-158,278C3849.8,6355.1,3839.8,6355.1,3795.8,6334.1
		z"/>
	<path class="st0" d="M6385.8,6334.1c-69-34-115-122-211-398c-34-99-75-209-92-243c-45-96-43-95-393-93c-303,2-370-5-431-45
		c-55-36-68-103-33-169c32-60,90-116,244-233c299-226,319-248,306-332c-4-25-45-155-91-289c-60-178-84-263-88-311
		c-8-122,30-180,119-180c71,0,145,32,266,115c279,192,348,236,385,247s45,10,92-15c48-25,85-52,331-239c203-154,333-180,386-76
		c38,74,23,176-70,471c-50,161-75,271-67,301c9,38,79,97,265,226c206,143,274,199,307,255c53,91,16,179-89,210c-64,19-256,34-443,35
		c-78,0-166,4-195,10c-76,14-99,44-148,199c-22,69-61,192-86,272c-55,176-97,248-158,278C6439.8,6355.1,6429.8,6355.1,6385.8,6334.1
		z"/>
	<path class="st1" d="M8947.8,6306.1c-53-45-96-135-173-360c-73-212-115-302-153-330c-27-19-43-20-350-20c-248-1-330-4-357-14
		c-126-49-148-135-65-244c38-50,108-109,322-271c79-59,157-124,174-144c28-34,30-42,25-90c-2-29-32-132-67-230
		c-120-345-135-418-101-494c14-32,29-49,57-62c70-33,155-3,330,116c61,41,157,107,214,146c57,40,124,79,148,88c43,17,44,17,101-13
		c31-16,142-93,246-172c259-197,359-239,433-185c87,64,77,170-53,584c-20,63-39,146-41,183l-6,68l46,43c24,24,123,97,218,162
		c267,184,351,273,335,359c-18,95-132,135-387,135c-187,1-382,16-415,32c-43,20-66,72-144,328c-103,339-153,420-256,420
		C8996.8,6341.1,8979.8,6334.1,8947.8,6306.1z M9074.8,6195.1c27-43,41-82,140-404c23-74,55-160,71-191c58-117,96-128,459-139
		c299-9,380-22,380-60c0-30-88-109-237-210c-357-245-385-281-349-456c9-44,40-158,70-255c61-199,79-278,74-329c-3-32-5-35-35-34
		c-42,2-126,54-286,178c-231,179-295,216-371,216c-61,0-157-51-346-183c-183-129-284-187-325-187h-28l5,64c4,45,32,143,92,319
		c71,209,87,265,88,318c2,112-32,152-294,350c-90,68-182,141-206,163c-46,43-77,90-67,106c15,25,100,32,370,31c322-2,369,4,424,55
		c49,44,85,120,166,354c37,107,79,218,92,245c26,52,60,95,75,95C9041.8,6241.1,9058.8,6220.1,9074.8,6195.1z"/>
	<path class="st1" d="M11543.8,6311.1c-52-42-106-155-184-380c-76-221-114-301-153-321c-21-11-96-14-337-14c-345,0-383-5-441-60
		c-28-27-34-39-34-75c0-94,59-160,322-358c97-73,192-150,212-172c53-59,50-84-48-371c-119-349-128-425-56-494c26-25,39-29,83-29
		c72,0,166,48,352,179c179,126,254,173,297,186c56,16,100-10,397-239c214-165,329-196,399-108c50,64,40,151-54,462
		c-36,121-68,247-71,281l-6,61l46,44c25,25,88,73,139,108c278,190,369,265,401,333c49,103-17,181-175,207c-34,5-124,10-198,10
		c-201,1-382,15-417,34c-42,21-71,88-143,332c-70,236-106,320-161,375c-34,34-45,39-87,39
		C11588.8,6341.1,11571.8,6335.1,11543.8,6311.1z M11661.8,6202.1c30-44,55-113,120-331c30-102,70-217,89-257c63-132,92-142,464-153
		c373-12,414-24,360-101c-23-32-147-126-325-247c-66-45-141-102-167-127c-113-108-111-158,13-555c40-131,51-181,53-240
		c1-64-1-75-17-78c-33-7-112,42-312,193c-110,83-225,163-254,178c-113,56-181,32-452-158c-176-124-288-188-321-183c-21,3-23,8-22,63
		c1,60,16,111,118,400c25,72,51,163,57,202c12,68,12,72-15,126c-30,63-85,115-256,242c-58,43-138,105-178,138
		c-75,61-129,128-118,146c16,26,98,33,371,32c322-2,369,4,424,55c53,47,81,104,157,324c77,225,105,291,140,338
		C11620.8,6247.1,11631.8,6246.1,11661.8,6202.1z"/>
</g>
<path class="st1" d="M635,9.6c-5.5,5-9.5,13.4-17.5,36.4c-3.6,10.7-7.9,22-9.5,25.1c-4.8,9.6-3.5,9.3-39.9,9.3
	c-34.8,0-37.8,0.4-43.6,5.8c-6.7,6.2-5.3,14,4.4,24c2.6,2.7,12.6,10.8,22.2,18.1c9.6,7.4,19.7,15.7,22.4,18.5
	c4.7,5.1,4.8,5.3,4.1,9.9c-0.7,4.9-4.3,16.2-11.3,36.2c-9.4,26.4-9.4,37.6-0.2,42.3c7.6,3.9,18-0.6,44.5-19.2
	c8.8-6.2,18.8-12.6,22.2-14.3c6.3-3.1,6.3-3.1,10.6-1.4c2.4,0.9,13.7,8.7,25.2,17.4c21.2,15.9,26.5,19.2,34.9,21.3
	c3.9,1,5,0.9,8.3-0.7c8.6-4.3,9.5-16,2.8-38.4c-2.1-6.9-5.3-17.7-7.2-24c-1.9-6.3-3.5-13.9-3.6-16.9c-0.2-5.2-0.1-5.4,4.9-10
	c2.8-2.5,12.9-10,22.5-16.6c26.6-18.2,35-27.9,31.8-36.4c-3.4-8.8-13.7-12.1-38-12.1c-18.7-0.1-38.2-1.6-41.6-3.2
	c-4.2-2-7.5-9.2-13.8-30.2c-11.1-37.3-15.4-44.6-26.4-44.6C639.9,5.9,638.3,6.6,635,9.6z M648.9,22.7c1.7,3.2,4.9,12,7.2,19.7
	c12.1,40.9,15.2,46.6,27.1,49.5c2.4,0.6,16.3,1.5,30.9,2c33.3,1,41,2.6,38.1,7.7c-2.1,3.9-10.3,10.7-27.1,22.2
	c-21.2,14.7-27.7,20.2-30.1,25.5c-3.5,7.6-2.3,15.3,7,45.3c7.5,24.2,8.8,34.3,4.2,34.3c-3.9,0-14.4-6.6-31.1-19.5
	c-9.6-7.5-20.7-15.2-24.7-17.2c-12.6-6.2-17.6-4.6-45.7,15.2c-24.7,17.3-34.4,21.8-34.7,16.2c-0.4-6,0.9-11.1,8.8-34.7
	c9.8-29,11-35.8,7.5-42.6c-2.8-5.5-11.1-13.1-29.7-27.1c-16.9-12.7-25.9-21.2-25.3-24.1c0.7-3.5,6.7-4.2,39.6-4.5
	c35-0.3,36.3-0.5,41.6-6.8c4.2-4.9,6.8-10.8,14.1-31.9c9.5-27.5,14.2-36.8,17.9-35.4C645.3,16.8,647.3,19.6,648.9,22.7z"/>
<path class="st1" d="M376.1,9.6c-5.5,5-9.5,13.4-17.5,36.4c-3.6,10.7-7.9,22-9.5,25.1c-4.8,9.6-3.5,9.3-39.9,9.3
	c-34.8,0-37.8,0.4-43.6,5.8c-6.7,6.2-5.3,14,4.4,24c2.6,2.7,12.6,10.8,22.2,18.1c9.6,7.4,19.7,15.7,22.4,18.5
	c4.7,5.1,4.8,5.3,4.1,9.9c-0.7,4.9-4.3,16.2-11.3,36.2c-9.4,26.4-9.4,37.6-0.2,42.3c7.6,3.9,18-0.6,44.5-19.2
	c8.8-6.2,18.8-12.6,22.2-14.3c6.3-3.1,6.3-3.1,10.6-1.4c2.4,0.9,13.7,8.7,25.2,17.4c21.2,15.9,26.5,19.2,34.9,21.3
	c3.9,1,5,0.9,8.3-0.7c8.6-4.3,9.5-16,2.8-38.4c-2.1-6.9-5.3-17.7-7.2-24c-1.9-6.3-3.5-13.9-3.6-16.9c-0.2-5.2-0.1-5.4,4.9-10
	c2.8-2.5,12.9-10,22.5-16.6c26.6-18.2,35-27.9,31.8-36.4c-3.4-8.8-13.7-12.1-38-12.1c-18.7-0.1-38.2-1.6-41.6-3.2
	c-4.2-2-7.5-9.2-13.8-30.2c-11.1-37.3-15.4-44.6-26.4-44.6C381,5.9,379.4,6.6,376.1,9.6z M390,22.7c1.7,3.2,4.9,12,7.2,19.7
	c12.1,40.9,15.2,46.6,27.1,49.5c2.4,0.6,16.3,1.5,30.9,2c33.3,1,41,2.6,38.1,7.7c-2.1,3.9-10.3,10.7-27.1,22.2
	c-21.2,14.7-27.7,20.2-30.1,25.5c-3.5,7.6-2.3,15.3,7,45.3c7.5,24.2,8.8,34.3,4.2,34.3c-3.9,0-14.4-6.6-31.1-19.5
	c-9.6-7.5-20.7-15.2-24.7-17.2c-12.6-6.2-17.6-4.6-45.7,15.2c-24.7,17.3-34.4,21.8-34.7,16.2c-0.4-6,0.9-11.1,8.8-34.7
	c9.8-29,11-35.8,7.5-42.6c-2.8-5.5-11.1-13.1-29.7-27.1c-16.9-12.7-25.9-21.2-25.3-24.1c0.7-3.5,6.7-4.2,39.6-4.5
	c35-0.3,36.3-0.5,41.6-6.8c4.2-4.9,6.8-10.8,14.1-31.9c9.5-27.5,14.2-36.8,17.9-35.4C386.4,16.8,388.4,19.6,390,22.7z"/>
<path class="st1" d="M117.1,9.6c-5.5,5-9.5,13.4-17.5,36.4c-3.6,10.7-7.9,22-9.5,25.1c-4.8,9.6-3.5,9.3-39.9,9.3
	c-34.8,0-37.8,0.4-43.6,5.8c-6.7,6.2-5.3,14,4.4,24c2.6,2.7,12.6,10.8,22.2,18.1c9.6,7.4,19.7,15.7,22.4,18.5
	c4.7,5.1,4.8,5.3,4.1,9.9c-0.7,4.9-4.3,16.2-11.3,36.2c-9.4,26.4-9.4,37.6-0.2,42.3c7.6,3.9,18-0.6,44.5-19.2
	c8.8-6.2,18.8-12.6,22.2-14.3c6.3-3.1,6.3-3.1,10.6-1.4c2.4,0.9,13.7,8.7,25.2,17.4c21.2,15.9,26.5,19.2,34.9,21.3
	c3.9,1,5,0.9,8.3-0.7c8.6-4.3,9.5-16,2.8-38.4c-2.1-6.9-5.3-17.7-7.2-24c-1.9-6.3-3.5-13.9-3.6-16.9c-0.2-5.2-0.1-5.4,4.9-10
	c2.8-2.5,12.9-10,22.5-16.6c26.6-18.2,35-27.9,31.8-36.4c-3.4-8.8-13.7-12.1-38-12.1c-18.7-0.1-38.2-1.6-41.6-3.2
	c-4.2-2-7.5-9.2-13.8-30.2c-11.1-37.3-15.4-44.6-26.4-44.6C122,5.9,120.4,6.6,117.1,9.6z M131,22.7c1.7,3.2,4.9,12,7.2,19.7
	c12.1,40.9,15.2,46.6,27.1,49.5c2.4,0.6,16.3,1.5,30.9,2c33.3,1,41,2.6,38.1,7.7c-2.1,3.9-10.3,10.7-27.1,22.2
	c-21.2,14.7-27.7,20.2-30.1,25.5c-3.5,7.6-2.3,15.3,7,45.3c7.5,24.2,8.8,34.3,4.2,34.3c-3.9,0-14.4-6.6-31.1-19.5
	c-9.6-7.5-20.7-15.2-24.7-17.2c-12.6-6.2-17.6-4.6-45.7,15.2c-24.7,17.3-34.4,21.8-34.7,16.2c-0.4-6,0.9-11.1,8.8-34.7
	c9.8-29,11-35.8,7.5-42.6c-2.8-5.5-11.1-13.1-29.7-27.1c-16.9-12.7-25.9-21.2-25.3-24.1c0.7-3.5,6.7-4.2,39.6-4.5
	c35-0.3,36.3-0.5,41.6-6.8c4.2-4.9,6.8-10.8,14.1-31.9c9.5-27.5,14.2-36.8,17.9-35.4C127.4,16.8,129.4,19.6,131,22.7z"/>
</svg>
