<?xml version="1.0" encoding="utf-8"?>
<!-- Generator: Adobe Illustrator 27.0.1, SVG Export Plug-In . SVG Version: 6.00 Build 0)  -->
<svg version="1.1" id="Layer_1" xmlns="http://www.w3.org/2000/svg" xmlns:xlink="http://www.w3.org/1999/xlink" x="0px" y="0px"
	 viewBox="0 0 1284 244" style="enable-background:new 0 0 1284 244;" xml:space="preserve">
<style type="text/css">
	.st0{fill:#F1C40F;}
</style>
<g transform="translate(0.000000,640.000000) scale(0.100000,-0.100000)">
	<path class="st0" d="M1205.83,6334.11c-69-34-115-122-211-398c-34-99-75-209-92-243c-45-96-43-95-393-93c-303,2-370-5-431-45
		c-55-36-68-103-33-169c32-60,90-116,244-233c299-226,319-248,306-332c-4-25-45-155-91-289c-60-178-84-263-88-311
		c-8-122,30-180,119-180c71,0,145,32,266,115c279,192,348,236,385,247s45,10,92-15c48-25,85-52,331-239c203-154,333-180,386-76
		c38,74,23,176-70,471c-50,161-75,271-67,301c9,38,79,97,265,226c206,143,274,199,307,255c53,91,16,179-89,210c-64,19-256,34-443,35
		c-78,0-166,4-195,10c-76,14-99,44-148,199c-22,69-61,192-86,272c-55,176-97,248-158,278
		C1259.83,6355.11,1249.83,6355.11,1205.83,6334.11z"/>
	<path class="st0" d="M3795.83,6334.11c-69-34-115-122-211-398c-34-99-75-209-92-243c-45-96-43-95-393-93c-303,2-370-5-431-45
		c-55-36-68-103-33-169c32-60,90-116,244-233c299-226,319-248,306-332c-4-25-45-155-91-289c-60-178-84-263-88-311
		c-8-122,30-180,119-180c71,0,145,32,266,115c279,192,348,236,385,247s45,10,92-15c48-25,85-52,331-239c203-154,333-180,386-76
		c38,74,23,176-70,471c-50,161-75,271-67,301c9,38,79,97,265,226c206,143,274,199,307,255c53,91,16,179-89,210c-64,19-256,34-443,35
		c-78,0-166,4-195,10c-76,14-99,44-148,199c-22,69-61,192-86,272c-55,176-97,248-158,278
		C3849.83,6355.11,3839.83,6355.11,3795.83,6334.11z"/>
	<path class="st0" d="M6385.83,6334.11c-69-34-115-122-211-398c-34-99-75-209-92-243c-45-96-43-95-393-93c-303,2-370-5-431-45
		c-55-36-68-103-33-169c32-60,90-116,244-233c299-226,319-248,306-332c-4-25-45-155-91-289c-60-178-84-263-88-311
		c-8-122,30-180,119-180c71,0,145,32,266,115c279,192,348,236,385,247s45,10,92-15c48-25,85-52,331-239c203-154,333-180,386-76
		c38,74,23,176-70,471c-50,161-75,271-67,301c9,38,79,97,265,226c206,143,274,199,307,255c53,91,16,179-89,210c-64,19-256,34-443,35
		c-78,0-166,4-195,10c-76,14-99,44-148,199c-22,69-61,192-86,272c-55,176-97,248-158,278
		C6439.83,6355.11,6429.83,6355.11,6385.83,6334.11z"/>
	<path class="st0" d="M8985.83,6334.11c-69-34-115-122-211-398c-34-99-75-209-92-243c-45-96-43-95-393-93c-303,2-370-5-431-45
		c-55-36-68-103-33-169c32-60,90-116,244-233c299-226,319-248,306-332c-4-25-45-155-91-289c-60-178-84-263-88-311
		c-8-122,30-180,119-180c71,0,145,32,266,115c279,192,348,236,385,247s45,10,92-15c48-25,85-52,331-239c203-154,333-180,386-76
		c38,74,23,176-70,471c-50,161-75,271-67,301c9,38,79,97,265,226c206,143,274,199,307,255c53,91,16,179-89,210c-64,19-256,34-443,35
		c-78,0-166,4-195,10c-76,14-99,44-148,199c-22,69-61,192-86,272c-55,176-97,248-158,278
		C9039.83,6355.11,9029.83,6355.11,8985.83,6334.11z"/>
	<path class="st0" d="M11543.83,6311.11c-52-42-106-155-184-380c-76-221-114-301-153-321c-21-11-96-14-337-14c-345,0-383-5-441-60
		c-28-27-34-39-34-75c0-94,59-160,322-358c97-73,192-150,212-172c53-59,50-84-48-371c-119-349-128-425-56-494c26-25,39-29,83-29
		c72,0,166,48,352,179c179,126,254,173,297,186c56,16,100-10,397-239c214-165,329-196,399-108c50,64,40,151-54,462
		c-36,121-68,247-71,281l-6,61l46,44c25,25,88,73,139,108c278,190,369,265,401,333c49,103-17,181-175,207c-34,5-124,10-198,10
		c-201,1-382,15-417,34c-42,21-71,88-143,332c-70,236-106,320-161,375c-34,34-45,39-87,39
		C11588.83,6341.11,11571.83,6335.11,11543.83,6311.11z M11661.83,6202.11c30-44,55-113,120-331c30-102,70-217,89-257
		c63-132,92-142,464-153c373-12,414-24,360-101c-23-32-147-126-325-247c-66-45-141-102-167-127c-113-108-111-158,13-555
		c40-131,51-181,53-240c1-64-1-75-17-78c-33-7-112,42-312,193c-110,83-225,163-254,178c-113,56-181,32-452-158
		c-176-124-288-188-321-183c-21,3-23,8-22,63c1,60,16,111,118,400c25,72,51,163,57,202c12,68,12,72-15,126c-30,63-85,115-256,242
		c-58,43-138,105-178,138c-75,61-129,128-118,146c16,26,98,33,371,32c322-2,369,4,424,55c53,47,81,104,157,324
		c77,225,105,291,140,338C11620.83,6247.11,11631.83,6246.11,11661.83,6202.11z"/>
</g>
</svg>
