<?xml version="1.0" encoding="utf-8"?>
<!-- Generator: Adobe Illustrator 27.0.1, SVG Export Plug-In . SVG Version: 6.00 Build 0)  -->
<svg version="1.1" id="Layer_1" xmlns="http://www.w3.org/2000/svg" xmlns:xlink="http://www.w3.org/1999/xlink" x="0px" y="0px"
	 viewBox="0 0 1284 244" style="enable-background:new 0 0 1284 244;" xml:space="preserve">
<style type="text/css">
	.st0{fill:#F1C40F;}
	.st1{fill:#F39C12;}
</style>
<g transform="translate(0.000000,640.000000) scale(0.100000,-0.100000)">
	<path class="st0" d="M1205.8,6334.1c-69-34-115-122-211-398c-34-99-75-209-92-243c-45-96-43-95-393-93c-303,2-370-5-431-45
		c-55-36-68-103-33-169c32-60,90-116,244-233c299-226,319-248,306-332c-4-25-45-155-91-289c-60-178-84-263-88-311
		c-8-122,30-180,119-180c71,0,145,32,266,115c279,192,348,236,385,247s45,10,92-15c48-25,85-52,331-239c203-154,333-180,386-76
		c38,74,23,176-70,471c-50,161-75,271-67,301c9,38,79,97,265,226c206,143,274,199,307,255c53,91,16,179-89,210c-64,19-256,34-443,35
		c-78,0-166,4-195,10c-76,14-99,44-148,199c-22,69-61,192-86,272c-55,176-97,248-158,278C1259.8,6355.1,1249.8,6355.1,1205.8,6334.1
		z"/>
	<path class="st0" d="M3795.8,6334.1c-69-34-115-122-211-398c-34-99-75-209-92-243c-45-96-43-95-393-93c-303,2-370-5-431-45
		c-55-36-68-103-33-169c32-60,90-116,244-233c299-226,319-248,306-332c-4-25-45-155-91-289c-60-178-84-263-88-311
		c-8-122,30-180,119-180c71,0,145,32,266,115c279,192,348,236,385,247s45,10,92-15c48-25,85-52,331-239c203-154,333-180,386-76
		c38,74,23,176-70,471c-50,161-75,271-67,301c9,38,79,97,265,226c206,143,274,199,307,255c53,91,16,179-89,210c-64,19-256,34-443,35
		c-78,0-166,4-195,10c-76,14-99,44-148,199c-22,69-61,192-86,272c-55,176-97,248-158,278C3849.8,6355.1,3839.8,6355.1,3795.8,6334.1
		z"/>
	<path class="st0" d="M6385.8,6334.1c-69-34-115-122-211-398c-34-99-75-209-92-243c-45-96-43-95-393-93c-303,2-370-5-431-45
		c-55-36-68-103-33-169c32-60,90-116,244-233c299-226,319-248,306-332c-4-25-45-155-91-289c-60-178-84-263-88-311
		c-8-122,30-180,119-180c71,0,145,32,266,115c279,192,348,236,385,247s45,10,92-15c48-25,85-52,331-239c203-154,333-180,386-76
		c38,74,23,176-70,471c-50,161-75,271-67,301c9,38,79,97,265,226c206,143,274,199,307,255c53,91,16,179-89,210c-64,19-256,34-443,35
		c-78,0-166,4-195,10c-76,14-99,44-148,199c-22,69-61,192-86,272c-55,176-97,248-158,278C6439.8,6355.1,6429.8,6355.1,6385.8,6334.1
		z"/>
	<path class="st0" d="M8985.8,6334.1c-69-34-115-122-211-398c-34-99-75-209-92-243c-45-96-43-95-393-93c-303,2-370-5-431-45
		c-55-36-68-103-33-169c32-60,90-116,244-233c299-226,319-248,306-332c-4-25-45-155-91-289c-60-178-84-263-88-311
		c-8-122,30-180,119-180c71,0,145,32,266,115c279,192,348,236,385,247s45,10,92-15c48-25,85-52,331-239c203-154,333-180,386-76
		c38,74,23,176-70,471c-50,161-75,271-67,301c9,38,79,97,265,226c206,143,274,199,307,255c53,91,16,179-89,210c-64,19-256,34-443,35
		c-78,0-166,4-195,10c-76,14-99,44-148,199c-22,69-61,192-86,272c-55,176-97,248-158,278C9039.8,6355.1,9029.8,6355.1,8985.8,6334.1
		z"/>
	<path class="st0" d="M11575.8,6334.1c-69-34-115-122-211-398c-34-99-75-209-92-243c-45-96-43-95-393-93c-303,2-370-5-431-45
		c-55-36-68-103-33-169c32-60,90-116,244-233c299-226,319-248,306-332c-4-25-45-155-91-289c-60-178-84-263-88-311
		c-8-122,30-180,119-180c71,0,145,32,266,115c279,192,348,236,385,247s45,10,92-15c48-25,85-52,331-239c203-154,333-180,386-76
		c38,74,23,176-70,471c-50,161-75,271-67,301c9,38,79,97,265,226c206,143,274,199,307,255c53,91,16,179-89,210c-64,19-256,34-443,35
		c-78,0-166,4-195,10c-76,14-99,44-148,199c-22,69-61,192-86,272c-55,176-97,248-158,278
		C11629.8,6355.1,11619.8,6355.1,11575.8,6334.1z"/>
</g>
<path class="st1" d="M635,9.6c-5.5,5-9.5,13.4-17.5,36.4c-3.6,10.7-7.9,22-9.5,25.1c-4.8,9.6-3.5,9.3-39.9,9.3
	c-34.8,0-37.8,0.4-43.6,5.8c-6.7,6.2-5.3,14,4.4,24c2.6,2.7,12.6,10.8,22.2,18.1c9.6,7.4,19.7,15.7,22.4,18.5
	c4.7,5.1,4.8,5.3,4.1,9.9c-0.7,4.9-4.3,16.2-11.3,36.2c-9.4,26.4-9.4,37.6-0.2,42.3c7.6,3.9,18-0.6,44.5-19.2
	c8.8-6.2,18.8-12.6,22.2-14.3c6.3-3.1,6.3-3.1,10.6-1.4c2.4,0.9,13.7,8.7,25.2,17.4c21.2,15.9,26.5,19.2,34.9,21.3
	c3.9,1,5,0.9,8.3-0.7c8.6-4.3,9.5-16,2.8-38.4c-2.1-6.9-5.3-17.7-7.2-24c-1.9-6.3-3.5-13.9-3.6-16.9c-0.2-5.2-0.1-5.4,4.9-10
	c2.8-2.5,12.9-10,22.5-16.6c26.6-18.2,35-27.9,31.8-36.4c-3.4-8.8-13.7-12.1-38-12.1c-18.7-0.1-38.2-1.6-41.6-3.2
	c-4.2-2-7.5-9.2-13.8-30.2c-11.1-37.3-15.4-44.6-26.4-44.6C639.9,5.9,638.3,6.6,635,9.6z M648.9,22.7c1.7,3.2,4.9,12,7.2,19.7
	c12.1,40.9,15.2,46.6,27.1,49.5c2.4,0.6,16.3,1.5,30.9,2c33.3,1,41,2.6,38.1,7.7c-2.1,3.9-10.3,10.7-27.1,22.2
	c-21.2,14.7-27.7,20.2-30.1,25.5c-3.5,7.6-2.3,15.3,7,45.3c7.5,24.2,8.8,34.3,4.2,34.3c-3.9,0-14.4-6.6-31.1-19.5
	c-9.6-7.5-20.7-15.2-24.7-17.2c-12.6-6.2-17.6-4.6-45.7,15.2c-24.7,17.3-34.4,21.8-34.7,16.2c-0.4-6,0.9-11.1,8.8-34.7
	c9.8-29,11-35.8,7.5-42.6c-2.8-5.5-11.1-13.1-29.7-27.1c-16.9-12.7-25.9-21.2-25.3-24.1c0.7-3.5,6.7-4.2,39.6-4.5
	c35-0.3,36.3-0.5,41.6-6.8c4.2-4.9,6.8-10.8,14.1-31.9c9.5-27.5,14.2-36.8,17.9-35.4C645.3,16.8,647.3,19.6,648.9,22.7z"/>
<path class="st1" d="M376.1,9.6c-5.5,5-9.5,13.4-17.5,36.4c-3.6,10.7-7.9,22-9.5,25.1c-4.8,9.6-3.5,9.3-39.9,9.3
	c-34.8,0-37.8,0.4-43.6,5.8c-6.7,6.2-5.3,14,4.4,24c2.6,2.7,12.6,10.8,22.2,18.1c9.6,7.4,19.7,15.7,22.4,18.5
	c4.7,5.1,4.8,5.3,4.1,9.9c-0.7,4.9-4.3,16.2-11.3,36.2c-9.4,26.4-9.4,37.6-0.2,42.3c7.6,3.9,18-0.6,44.5-19.2
	c8.8-6.2,18.8-12.6,22.2-14.3c6.3-3.1,6.3-3.1,10.6-1.4c2.4,0.9,13.7,8.7,25.2,17.4c21.2,15.9,26.5,19.2,34.9,21.3
	c3.9,1,5,0.9,8.3-0.7c8.6-4.3,9.5-16,2.8-38.4c-2.1-6.9-5.3-17.7-7.2-24c-1.9-6.3-3.5-13.9-3.6-16.9c-0.2-5.2-0.1-5.4,4.9-10
	c2.8-2.5,12.9-10,22.5-16.6c26.6-18.2,35-27.9,31.8-36.4c-3.4-8.8-13.7-12.1-38-12.1c-18.7-0.1-38.2-1.6-41.6-3.2
	c-4.2-2-7.5-9.2-13.8-30.2c-11.1-37.3-15.4-44.6-26.4-44.6C381,5.9,379.4,6.6,376.1,9.6z M390,22.7c1.7,3.2,4.9,12,7.2,19.7
	c12.1,40.9,15.2,46.6,27.1,49.5c2.4,0.6,16.3,1.5,30.9,2c33.3,1,41,2.6,38.1,7.7c-2.1,3.9-10.3,10.7-27.1,22.2
	c-21.2,14.7-27.7,20.2-30.1,25.5c-3.5,7.6-2.3,15.3,7,45.3c7.5,24.2,8.8,34.3,4.2,34.3c-3.9,0-14.4-6.6-31.1-19.5
	c-9.6-7.5-20.7-15.2-24.7-17.2c-12.6-6.2-17.6-4.6-45.7,15.2c-24.7,17.3-34.4,21.8-34.7,16.2c-0.4-6,0.9-11.1,8.8-34.7
	c9.8-29,11-35.8,7.5-42.6c-2.8-5.5-11.1-13.1-29.7-27.1c-16.9-12.7-25.9-21.2-25.3-24.1c0.7-3.5,6.7-4.2,39.6-4.5
	c35-0.3,36.3-0.5,41.6-6.8c4.2-4.9,6.8-10.8,14.1-31.9c9.5-27.5,14.2-36.8,17.9-35.4C386.4,16.8,388.4,19.6,390,22.7z"/>
<path class="st1" d="M117.3,9.6c-5.5,5-9.5,13.4-17.5,36.4c-3.6,10.7-7.9,22-9.5,25.1c-4.8,9.6-3.5,9.3-39.9,9.3
	c-34.8,0-37.8,0.4-43.6,5.8c-6.7,6.2-5.3,14,4.4,24c2.6,2.7,12.6,10.8,22.2,18.1c9.6,7.4,19.7,15.7,22.4,18.5
	c4.7,5.1,4.8,5.3,4.1,9.9c-0.7,4.9-4.3,16.2-11.3,36.2c-9.4,26.4-9.4,37.6-0.2,42.3c7.6,3.9,18-0.6,44.5-19.2
	c8.8-6.2,18.8-12.6,22.2-14.3c6.3-3.1,6.3-3.1,10.6-1.4c2.4,0.9,13.7,8.7,25.2,17.4c21.2,15.9,26.5,19.2,34.9,21.3
	c3.9,1,5,0.9,8.3-0.7c8.6-4.3,9.5-16,2.8-38.4c-2.1-6.9-5.3-17.7-7.2-24s-3.5-13.9-3.6-16.9c-0.2-5.2-0.1-5.4,4.9-10
	c2.8-2.5,12.9-10,22.5-16.6c26.6-18.2,35-27.9,31.8-36.4c-3.4-8.8-13.7-12.1-38-12.1c-18.7-0.1-38.2-1.6-41.6-3.2
	c-4.2-2-7.5-9.2-13.8-30.2c-11.1-37.3-15.4-44.6-26.4-44.6C122.2,5.9,120.6,6.6,117.3,9.6z M131.2,22.7c1.7,3.2,4.9,12,7.2,19.7
	c12.1,40.9,15.2,46.6,27.1,49.5c2.4,0.6,16.3,1.5,30.9,2c33.3,1,41,2.6,38.1,7.7c-2.1,3.9-10.3,10.7-27.1,22.2
	c-21.2,14.7-27.7,20.2-30.1,25.5c-3.5,7.6-2.3,15.3,7,45.3c7.5,24.2,8.8,34.3,4.2,34.3c-3.9,0-14.4-6.6-31.1-19.5
	c-9.6-7.5-20.7-15.2-24.7-17.2c-12.6-6.2-17.6-4.6-45.7,15.2c-24.7,17.3-34.4,21.8-34.7,16.2c-0.4-6,0.9-11.1,8.8-34.7
	c9.8-29,11-35.8,7.5-42.6c-2.8-5.5-11.1-13.1-29.7-27.1C22,106.6,13,98.1,13.6,95.2c0.7-3.5,6.7-4.2,39.6-4.5
	c35-0.3,36.3-0.5,41.6-6.8c4.2-4.9,6.8-10.8,14.1-31.9c9.5-27.5,14.2-36.8,17.9-35.4C127.6,16.8,129.6,19.6,131.2,22.7z"/>
<path class="st1" d="M894.5,9.8c-5.5,5-9.5,13.4-17.5,36.4c-3.6,10.7-7.9,22-9.5,25.1c-4.8,9.6-3.5,9.3-39.9,9.3
	c-34.8,0-37.8,0.4-43.6,5.8c-6.7,6.2-5.3,14,4.4,24c2.6,2.7,12.6,10.8,22.2,18.1c9.6,7.4,19.7,15.7,22.4,18.5
	c4.7,5.1,4.8,5.3,4.1,9.9c-0.7,4.9-4.3,16.2-11.3,36.2c-9.4,26.4-9.4,37.6-0.2,42.3c7.6,3.9,18-0.6,44.5-19.2
	c8.8-6.2,18.8-12.6,22.2-14.3c6.3-3.1,6.3-3.1,10.6-1.4c2.4,0.9,13.7,8.7,25.2,17.4c21.2,15.9,26.5,19.2,34.9,21.3
	c3.9,1,5,0.9,8.3-0.7c8.6-4.3,9.5-16,2.8-38.4c-2.1-6.9-5.3-17.7-7.2-24c-1.9-6.3-3.5-13.9-3.6-16.9c-0.2-5.2-0.1-5.4,4.9-10
	c2.8-2.5,12.9-10,22.5-16.6c26.6-18.2,35-27.9,31.8-36.4c-3.4-8.8-13.7-12.1-38-12.1c-18.7-0.1-38.2-1.6-41.6-3.2
	c-4.2-2-7.5-9.2-13.8-30.2C918,13.4,913.7,6.1,902.7,6.1C899.4,6.1,897.8,6.8,894.5,9.8z M908.4,22.9c1.7,3.2,4.9,12,7.2,19.7
	c12.1,40.9,15.2,46.6,27.1,49.5c2.4,0.6,16.3,1.5,30.9,2c33.3,1,41,2.6,38.1,7.7c-2.1,3.9-10.3,10.7-27.1,22.2
	c-21.2,14.7-27.7,20.2-30.1,25.5c-3.5,7.6-2.3,15.3,7,45.3c7.5,24.2,8.8,34.3,4.2,34.3c-3.9,0-14.4-6.6-31.1-19.5
	c-9.6-7.5-20.7-15.2-24.7-17.2c-12.6-6.2-17.6-4.6-45.7,15.2c-24.7,17.3-34.4,21.8-34.7,16.2c-0.4-6,0.9-11.1,8.8-34.7
	c9.8-29,11-35.8,7.5-42.6c-2.8-5.5-11.1-13.1-29.7-27.1c-16.9-12.7-25.9-21.2-25.3-24.1c0.7-3.5,6.7-4.2,39.6-4.5
	c35-0.3,36.3-0.5,41.6-6.8c4.2-4.9,6.8-10.8,14.1-31.9c9.5-27.5,14.2-36.8,17.9-35.4C904.8,17,906.8,19.8,908.4,22.9z"/>
<path class="st1" d="M1154.1,9.6c-5.5,5-9.5,13.4-17.5,36.4c-3.6,10.7-7.9,22-9.5,25.1c-4.8,9.6-3.5,9.3-39.9,9.3
	c-34.8,0-37.8,0.4-43.6,5.8c-6.7,6.2-5.3,14,4.4,24c2.6,2.7,12.6,10.8,22.2,18.1c9.6,7.4,19.7,15.7,22.4,18.5
	c4.7,5.1,4.8,5.3,4.1,9.9c-0.7,4.9-4.3,16.2-11.3,36.2c-9.4,26.4-9.4,37.6-0.2,42.3c7.6,3.9,18-0.6,44.5-19.2
	c8.8-6.2,18.8-12.6,22.2-14.3c6.3-3.1,6.3-3.1,10.6-1.4c2.4,0.9,13.7,8.7,25.2,17.4c21.2,15.9,26.5,19.2,34.9,21.3
	c3.9,1,5,0.9,8.3-0.7c8.6-4.3,9.5-16,2.8-38.4c-2.1-6.9-5.3-17.7-7.2-24s-3.5-13.9-3.6-16.9c-0.2-5.2-0.1-5.4,4.9-10
	c2.8-2.5,12.9-10,22.5-16.6c26.6-18.2,35-27.9,31.8-36.4c-3.4-8.8-13.7-12.1-38-12.1c-18.7-0.1-38.2-1.6-41.6-3.2
	c-4.2-2-7.5-9.2-13.8-30.2c-11.1-37.3-15.4-44.6-26.4-44.6C1159,5.9,1157.4,6.6,1154.1,9.6z M1168,22.7c1.7,3.2,4.9,12,7.2,19.7
	c12.1,40.9,15.2,46.6,27.1,49.5c2.4,0.6,16.3,1.5,30.9,2c33.3,1,41,2.6,38.1,7.7c-2.1,3.9-10.3,10.7-27.1,22.2
	c-21.2,14.7-27.7,20.2-30.1,25.5c-3.5,7.6-2.3,15.3,7,45.3c7.5,24.2,8.8,34.3,4.2,34.3c-3.9,0-14.4-6.6-31.1-19.5
	c-9.6-7.5-20.7-15.2-24.7-17.2c-12.6-6.2-17.6-4.6-45.7,15.2c-24.7,17.3-34.4,21.8-34.7,16.2c-0.4-6,0.9-11.1,8.8-34.7
	c9.8-29,11-35.8,7.5-42.6c-2.8-5.5-11.1-13.1-29.7-27.1c-16.9-12.7-25.9-21.2-25.3-24.1c0.7-3.5,6.7-4.2,39.6-4.5
	c35-0.3,36.3-0.5,41.6-6.8c4.2-4.9,6.8-10.8,14.1-31.9c9.5-27.5,14.2-36.8,17.9-35.4C1164.4,16.8,1166.4,19.6,1168,22.7z"/>
</svg>
