<?xml version="1.0" encoding="utf-8"?>
<!-- Generator: Adobe Illustrator 27.0.1, SVG Export Plug-In . SVG Version: 6.00 Build 0)  -->
<svg version="1.1" id="Layer_1" xmlns="http://www.w3.org/2000/svg" xmlns:xlink="http://www.w3.org/1999/xlink" x="0px" y="0px"
	 viewBox="0 0 1284 244" style="enable-background:new 0 0 1284 244;" xml:space="preserve">
<style type="text/css">
	.st0{fill:#F1C40F;}
</style>
<g transform="translate(0.000000,640.000000) scale(0.100000,-0.100000)">
	<path class="st0" d="M1205.83,6334.11c-69-34-115-122-211-398c-34-99-75-209-92-243c-45-96-43-95-393-93c-303,2-370-5-431-45
		c-55-36-68-103-33-169c32-60,90-116,244-233c299-226,319-248,306-332c-4-25-45-155-91-289c-60-178-84-263-88-311
		c-8-122,30-180,119-180c71,0,145,32,266,115c279,192,348,236,385,247s45,10,92-15c48-25,85-52,331-239c203-154,333-180,386-76
		c38,74,23,176-70,471c-50,161-75,271-67,301c9,38,79,97,265,226c206,143,274,199,307,255c53,91,16,179-89,210c-64,19-256,34-443,35
		c-78,0-166,4-195,10c-76,14-99,44-148,199c-22,69-61,192-86,272c-55,176-97,248-158,278
		C1259.83,6355.11,1249.83,6355.11,1205.83,6334.11z"/>
	<path class="st0" d="M3795.83,6334.11c-69-34-115-122-211-398c-34-99-75-209-92-243c-45-96-43-95-393-93c-303,2-370-5-431-45
		c-55-36-68-103-33-169c32-60,90-116,244-233c299-226,319-248,306-332c-4-25-45-155-91-289c-60-178-84-263-88-311
		c-8-122,30-180,119-180c71,0,145,32,266,115c279,192,348,236,385,247s45,10,92-15c48-25,85-52,331-239c203-154,333-180,386-76
		c38,74,23,176-70,471c-50,161-75,271-67,301c9,38,79,97,265,226c206,143,274,199,307,255c53,91,16,179-89,210c-64,19-256,34-443,35
		c-78,0-166,4-195,10c-76,14-99,44-148,199c-22,69-61,192-86,272c-55,176-97,248-158,278
		C3849.83,6355.11,3839.83,6355.11,3795.83,6334.11z"/>
	<path class="st0" d="M6385.83,6334.11c-69-34-115-122-211-398c-34-99-75-209-92-243c-45-96-43-95-393-93c-303,2-370-5-431-45
		c-55-36-68-103-33-169c32-60,90-116,244-233c299-226,319-248,306-332c-4-25-45-155-91-289c-60-178-84-263-88-311
		c-8-122,30-180,119-180c71,0,145,32,266,115c279,192,348,236,385,247s45,10,92-15c48-25,85-52,331-239c203-154,333-180,386-76
		c38,74,23,176-70,471c-50,161-75,271-67,301c9,38,79,97,265,226c206,143,274,199,307,255c53,91,16,179-89,210c-64,19-256,34-443,35
		c-78,0-166,4-195,10c-76,14-99,44-148,199c-22,69-61,192-86,272c-55,176-97,248-158,278
		C6439.83,6355.11,6429.83,6355.11,6385.83,6334.11z"/>
	<path class="st0" d="M8985.83,6334.11c-69-34-115-122-211-398c-34-99-75-209-92-243c-45-96-43-95-393-93c-303,2-370-5-431-45
		c-55-36-68-103-33-169c32-60,90-116,244-233c299-226,319-248,306-332c-4-25-45-155-91-289c-60-178-84-263-88-311
		c-8-122,30-180,119-180c71,0,145,32,266,115c279,192,348,236,385,247s45,10,92-15c48-25,85-52,331-239c203-154,333-180,386-76
		c38,74,23,176-70,471c-50,161-75,271-67,301c9,38,79,97,265,226c206,143,274,199,307,255c53,91,16,179-89,210c-64,19-256,34-443,35
		c-78,0-166,4-195,10c-76,14-99,44-148,199c-22,69-61,192-86,272c-55,176-97,248-158,278
		C9039.83,6355.11,9029.83,6355.11,8985.83,6334.11z"/>
	<path class="st0" d="M11575.83,6334.11c-69-34-115-122-211-398c-34-99-75-209-92-243c-45-96-43-95-393-93c-303,2-370-5-431-45
		c-55-36-68-103-33-169c32-60,90-116,244-233c299-226,319-248,306-332c-4-25-45-155-91-289c-60-178-84-263-88-311
		c-8-122,30-180,119-180c71,0,145,32,266,115c279,192,348,236,385,247s45,10,92-15c48-25,85-52,331-239c203-154,333-180,386-76
		c38,74,23,176-70,471c-50,161-75,271-67,301c9,38,79,97,265,226c206,143,274,199,307,255c53,91,16,179-89,210c-64,19-256,34-443,35
		c-78,0-166,4-195,10c-76,14-99,44-148,199c-22,69-61,192-86,272c-55,176-97,248-158,278
		C11629.83,6355.11,11619.83,6355.11,11575.83,6334.11z"/>
</g>
</svg>
